<svg xmlns="http://www.w3.org/2000/svg" xmlns:xlink="http://www.w3.org/1999/xlink" width="2000" zoomAndPan="magnify" viewBox="0 0 1500 1499.999933" height="2000" preserveAspectRatio="xMidYMid meet" version="1.0"><defs><clipPath id="779e15f18a"><path d="M 30 606.886719 L 558 606.886719 L 558 893.386719 L 30 893.386719 Z M 30 606.886719 " clip-rule="nonzero"/></clipPath><clipPath id="875a67c12c"><path d="M 890 687 L 1092 687 L 1092 893.386719 L 890 893.386719 Z M 890 687 " clip-rule="nonzero"/></clipPath><clipPath id="0e91a6ec72"><path d="M 1110 606.886719 L 1254 606.886719 L 1254 890 L 1110 890 Z M 1110 606.886719 " clip-rule="nonzero"/></clipPath><clipPath id="894333f84d"><path d="M 276 606.886719 L 323 606.886719 L 323 725 L 276 725 Z M 276 606.886719 " clip-rule="nonzero"/></clipPath></defs><g clip-path="url(#779e15f18a)"><path fill="#02a0e7" d="M 464.933594 687.351562 C 395.25 683.03125 392.496094 732.976562 255.988281 754.695312 C 166.179688 768.980469 90.011719 759.5 85.855469 733.378906 C 84.9375 727.40625 87.785156 721.113281 93.90625 714.738281 C 100.328125 708.011719 110.359375 701.222656 123.207031 694.738281 L 123.207031 730.171875 C 135.957031 732.855469 151.402344 734.425781 168.804688 734.765625 L 168.804688 606.886719 L 123.207031 606.886719 L 123.207031 651.226562 C 63.433594 676.464844 26.3125 710.703125 31.351562 742.105469 C 35.726562 769.503906 71.28125 788.972656 123.207031 797.066406 L 123.207031 890.199219 L 168.804688 890.199219 L 168.804688 801.082031 C 200.179688 801.789062 231.355469 799.621094 262.332031 794.578125 C 267.160156 793.796875 271.933594 792.964844 276.65625 792.078125 L 276.65625 890.199219 L 322.25 890.199219 L 322.25 781.449219 C 334.824219 777.910156 346.839844 773.996094 358.164062 769.742188 C 357.03125 776.535156 356.476562 783.371094 356.492188 790.257812 C 356.492188 851.003906 397.929688 893.40625 457.234375 893.40625 C 516.539062 893.40625 557.976562 851.003906 557.976562 790.257812 C 557.996094 732.175781 520.066406 690.769531 464.933594 687.351562 Z M 419.964844 739.332031 C 423.289062 737.164062 426.449219 734.953125 429.445312 732.699219 C 437.410156 728.398438 446.792969 726.101562 457.28125 726.101562 C 491.972656 726.101562 514.394531 751.277344 514.394531 790.238281 C 514.394531 829.203125 491.972656 854.378906 457.28125 854.378906 C 422.589844 854.378906 400.160156 829.203125 400.160156 790.238281 C 400.132812 768.136719 407.347656 750.457031 419.9375 739.332031 Z M 419.964844 739.332031 " fill-opacity="1" fill-rule="nonzero"/></g><g clip-path="url(#875a67c12c)"><path fill="#02a0e7" d="M 991.101562 687.09375 C 931.789062 687.09375 890.363281 729.511719 890.363281 790.238281 C 890.363281 850.96875 931.789062 893.386719 991.101562 893.386719 C 1028.308594 893.386719 1058.621094 877.234375 1076.453125 847.910156 L 1078.648438 844.328125 L 1039.25 827.632812 L 1037.597656 830.214844 C 1027.5 846.027344 1011.421875 854.378906 991.101562 854.378906 C 961.734375 854.378906 940.625 835.773438 935.292969 805.507812 L 1087.640625 805.507812 L 1091.746094 805.425781 L 1091.277344 801.75 C 1091.632812 797.820312 1091.828125 793.953125 1091.828125 790.238281 C 1091.828125 729.511719 1050.410156 687.09375 991.101562 687.09375 Z M 991.101562 726.101562 C 1017.964844 726.101562 1037.359375 740.746094 1044.929688 766.527344 L 937.269531 766.527344 C 944.839844 740.746094 964.257812 726.101562 991.101562 726.101562 Z M 991.101562 726.101562 " fill-opacity="1" fill-rule="nonzero"/></g><g clip-path="url(#0e91a6ec72)"><path fill="#02a0e7" d="M 1206.398438 831.335938 C 1211.9375 822.238281 1216.78125 812.785156 1220.929688 802.972656 C 1240.367188 757.285156 1245.550781 707.800781 1245.550781 685.761719 C 1245.550781 662.949219 1239.355469 643.316406 1227.664062 628.992188 C 1216.164062 614.945312 1199.746094 606.886719 1182.621094 606.886719 C 1165.496094 606.886719 1149.277344 614.878906 1137.84375 628.769531 C 1126.1875 642.949219 1120.03125 662.386719 1120.03125 684.972656 C 1120.03125 700.085938 1121.535156 753.269531 1140.78125 802.570312 C 1144.570312 812.4375 1149.140625 821.933594 1154.492188 831.050781 C 1142.496094 842.304688 1128.792969 848.019531 1113.679688 848.019531 L 1110.007812 848.019531 L 1110.007812 889.152344 L 1113.679688 889.152344 C 1138.679688 889.152344 1161.097656 880.386719 1180.390625 863.097656 C 1199.808594 880.386719 1223.09375 889.152344 1249.652344 889.152344 L 1253.261719 889.152344 L 1253.261719 848.019531 L 1249.679688 848.019531 C 1232.703125 848.019531 1218.523438 842.5625 1206.398438 831.335938 Z M 1182.621094 648.019531 C 1187.449219 648.019531 1192.148438 650.507812 1195.863281 655.046875 C 1199.792969 659.851562 1204.464844 669.066406 1204.464844 685.761719 C 1204.464844 698.027344 1202.792969 714.691406 1199.296875 732.617188 C 1195.800781 750.542969 1190.457031 769.652344 1183.117188 786.878906 C 1182.363281 788.632812 1181.613281 790.351562 1180.820312 792.050781 C 1180.214844 790.609375 1179.621094 789.148438 1179.042969 787.648438 C 1165.824219 753.792969 1161.128906 712.421875 1161.128906 685 C 1161.128906 659.578125 1172.257812 648.019531 1182.621094 648.019531 Z M 1182.621094 648.019531 " fill-opacity="1" fill-rule="nonzero"/></g><path fill="#02a0e7" d="M 1395.621094 790.515625 L 1466.710938 691.328125 L 1413.308594 691.328125 L 1369.898438 755.898438 L 1326.195312 691.328125 L 1272.761719 691.328125 L 1344.339844 790.542969 L 1271.496094 889.152344 L 1324.992188 889.152344 L 1370.074219 824.242188 L 1415.472656 889.152344 L 1468.960938 889.152344 Z M 1395.621094 790.515625 " fill-opacity="1" fill-rule="nonzero"/><g clip-path="url(#894333f84d)"><path fill="#02a0e7" d="M 322.269531 713.140625 L 322.269531 606.886719 L 276.667969 606.886719 L 276.667969 724.394531 C 286.304688 722.484375 295.601562 720.371094 304.566406 718.0625 C 310.660156 716.496094 316.5625 714.855469 322.269531 713.140625 Z M 322.269531 713.140625 " fill-opacity="1" fill-rule="nonzero"/></g><path fill="#02a0e7" d="M 784.09375 848.890625 L 742.050781 691.042969 L 699.238281 691.042969 L 657.195312 848.890625 L 609.886719 691.042969 L 564.730469 691.042969 L 628.582031 889.4375 L 687.125 889.4375 L 720.632812 768.59375 L 754.175781 889.4375 L 812.710938 889.4375 L 876.558594 691.042969 L 831.40625 691.042969 Z M 784.09375 848.890625 " fill-opacity="1" fill-rule="nonzero"/></svg>