<svg xmlns="http://www.w3.org/2000/svg" width="32" height="32" viewBox="0 0 32 32" fill="none">
  <rect width="32" height="32" rx="7" fill="#EEF4F8"/>
  <path d="M21.59 10.69a4.83 4.83 0 0 1-3.77-4.25V4h-3.45v15.67a2.89 2.89 0 0 1-2.88 2.5 2.89 2.89 0 0 1-2.89-2.89 2.89 2.89 0 0 1 2.89-2.89c.28 0 .54.04.79.1v-3.38a6.33 6.33 0 0 0-.79-.05 6.34 6.34 0 0 0-6.34 6.34 6.34 6.34 0 0 0 6.34 6.34 6.34 6.34 0 0 0 6.33-6.34v-7.81a8.18 8.18 0 0 0 4.78 1.52V8.75a4.85 4.85 0 0 1-1.01-.06z" fill="#02a0e7"/>
</svg>